<?xml version="1.0" encoding="utf-8"?>
<!-- Generator: Adobe Illustrator 27.0.0, SVG Export Plug-In . SVG Version: 6.00 Build 0)  -->
<svg version="1.1" id="Layer_1" xmlns="http://www.w3.org/2000/svg" xmlns:xlink="http://www.w3.org/1999/xlink" x="0px" y="0px"
	 viewBox="0 0 768 1366" style="enable-background:new 0 0 768 1366;" xml:space="preserve">
<style type="text/css">
	.st0{fill:none;stroke:#CE3863;stroke-width:5;stroke-miterlimit:10;}
</style>
<path class="st0" d="M382.09,20.45c0,0-138.64,9.09,13.64,86.36s111.36,265.91,90.91,329.55C466.18,500,307.09,513.64,248,538.64
	s-72.73,84.09,45.45,93.18c118.18,9.09,9.09,125,120.45,127.27c111.36,2.27,31.82,193.18,31.82,193.18l47.73,127.27l-213.64-20.45
	l129.55-145.45l-68.18-70.45l-38.64,38.64l15.91,50l-52.27,22.73c0,0-109.09,136.36-31.82,159.09s104.55-36.36,206.82,70.45
	c102.27,106.82-25,145.45-25,145.45"/>
</svg>
